<svg xmlns="http://www.w3.org/2000/svg" xmlns:xlink="http://www.w3.org/1999/xlink" viewBox="0 0 165 133.59"><defs><style>.cls-1{fill:none;clip-rule:evenodd;}.cls-2{fill:#263448;}.cls-3{clip-path:url(#clip-path);}.cls-4{fill:url(#Gradiente_sem_nome_8);}.cls-5{clip-path:url(#clip-path-2);}.cls-6{fill:url(#Gradiente_sem_nome_8-2);}</style><clipPath id="clip-path"><path class="cls-1" d="M58.55,66.92a4.28,4.28,0,0,1-.72-.06,5.11,5.11,0,0,0-.85-.07q-3.72,4.33-7.08,8.47t-6.07,7.87Q41.13,86.87,39.2,90a29.23,29.23,0,0,0-2.76,5.71q4-5.77,9.61-13.16t12.5-15.67M94.11,30.63l0,0,0,0,0,0,0,0,0,0,0,0,0,0,0,0Q85.11,38.8,76.63,47.93T60.35,66.19a162.21,162.21,0,0,1,16,3.19q8.4,2.1,17,4.2t17.31,3.79a114.58,114.58,0,0,0,16.81,2A67.6,67.6,0,0,0,129.61,72a32.57,32.57,0,0,0,.78-7A24.33,24.33,0,0,0,127.5,53.1a19.68,19.68,0,0,0-9.13-8.29c-1.85.77-3.75,1.45-5.68,2L112,45.06c1.09-.43,2.19-.92,3.29-1.45a29.88,29.88,0,0,0-4.36-1.18l-.44-1.06.11,0a36.41,36.41,0,0,1,6,1.5,79.83,79.83,0,0,0,11.11-7.21,80.32,80.32,0,0,0,9.74-8.77A53.07,53.07,0,0,0,144.26,18a15.26,15.26,0,0,0,2.59-7.57,5.29,5.29,0,0,0-1.21-3.72c-1.2-1.36-3.36-2.05-6.48-2.05a18.79,18.79,0,0,0-3,.25q-1.56.24-3.24.6-1.32.36-2.76.84c-1,.32-1.92.68-2.89,1.08a80.64,80.64,0,0,0-16,9.19,183.1,183.1,0,0,0-17,13.88Zm70.16,35q.72,0,.72.6a35.54,35.54,0,0,1-15.26,11.06,54.62,54.62,0,0,1-18.66,3.12A66.36,66.36,0,0,1,125,93.05l-.12.19h-.09V85.66c.88-1.77,1.67-3.53,2.35-5.29a111.59,111.59,0,0,1-17-2.1q-8.7-1.74-17.36-3.91t-17-4.2c-3.09-.75-6.08-1.39-9-2h0l-1-.17-.25,0h0l-.14,0h0l-.18,0H65l-.23,0h-.09l-.55-.09h-.69l-.09,0h-.79l-.25,0-.24,0-.27-.05h0L59.63,67q-7.58,9-13.7,17.12T35.84,98.27q0,2.52-1.68,2.52a1.51,1.51,0,0,1-1-.36,1.34,1.34,0,0,1-.42-1.08,14.74,14.74,0,0,1,1.56-5.94,64.42,64.42,0,0,1,4.26-7.69q2.72-4.27,6.49-9.13t8.23-10.15a11.51,11.51,0,0,0-1.62-.13H50A77.55,77.55,0,0,0,28.39,69,48.81,48.81,0,0,0,13,76.23,30,30,0,0,0,3.88,86.56a26.28,26.28,0,0,0-3,12.19,27.34,27.34,0,0,0,3.06,12.44A32.16,32.16,0,0,0,13.13,122a49.91,49.91,0,0,0,15.2,7.69,68.07,68.07,0,0,0,21,2.94,76.18,76.18,0,0,0,26.79-4.69,92.84,92.84,0,0,0,22.76-12.13A86.56,86.56,0,0,0,116.27,99c.54-.7,1.07-1.39,1.58-2.09l1.62,4q-1.83,2.27-3.9,4.47a89.71,89.71,0,0,1-12.61,11,86.82,86.82,0,0,1-15.44,9,95.64,95.64,0,0,1-18,6,90.05,90.05,0,0,1-20.31,2.22,69.38,69.38,0,0,1-21.38-3,49,49,0,0,1-15.44-7.93,33.67,33.67,0,0,1-9.31-11.17A28.24,28.24,0,0,1,0,98.75,27.13,27.13,0,0,1,3,86.5a31.21,31.21,0,0,1,9.07-10.69,48.46,48.46,0,0,1,15.2-7.57,71,71,0,0,1,21.38-2.89c.89,0,1.77,0,2.65.06s1.76.06,2.64.06q5.28-6.36,11.17-13l6-6.79h0l3.41-3.84.18-.2.18-.2.18-.2.18-.21.18-.2.18-.2.18-.2.17-.2.18-.2.18-.2.18-.2.18-.21.07-.08.08-.09,0,0,.06-.06.08-.09,0,0,0,0,.08-.08.06-.08h0l.08-.09.08-.09h0l.07-.08.08-.09,0,0,.06-.05.07-.09,0-.06,0,0,.08-.09.07-.08h0L78,38l.07-.08.16-.18,0,0,0,0,.08-.09,0-.06,0,0,.08-.08.07-.08h0l.08-.09.07-.09h0l.06-.08L79,36.9l0,0,0,0,.3-.35h0l.08-.09.08-.09h0l.06-.07.08-.09,0,0,0-.06.08-.09,0,0,0,0,.07-.09.07-.07h0l.08-.09.08-.09h0l.07-.08.08-.09,0,0,.06-.07.08-.09,0,0,0,0,.08-.09.06-.07,0,0,.08-.09.07-.09h0l.16-.18h0l.14-.16,0,0,.44-.5.08-.09,0,0h0q3-3.42,5.79-6.72l1.18-1.39h0l1.09-1.3.22-.26v0l.42-.51,0,0,.14-.18,0,0,.65-.78,0-.07.38-.46.06-.07.14-.18h0l.11-.13,0,0,.09-.1.06-.07,0-.06.38-.47.05-.06.09-.11,0,0,.4-.5,0,0,.38-.48,0-.05.1-.12h0l.1-.13,0,0,.09-.11.21-.26.1-.13h0l.21-.27.06-.07,0-.06.08-.11,0,0,.11-.13h0L95,18l0,0,.08-.1,0-.06,0-.07.08-.1,0,0,.21-.26,0,0,.08-.11,0-.05.07-.08.06-.08,0-.06.09-.11v0l.11-.13h0l.1-.13,0,0,.12-.16.06-.08.06-.08,0-.05.09-.11,0,0,.1-.13h0l.06-.08.05-.07h0l0-.07.23-.3.06-.08,0,0c1.07-1.41,2.12-2.85,3.11-4.31l1.06-1.57h0c.57-.89,1.1-1.74,1.57-2.55q2.28-4,2.28-6.37a.32.32,0,0,1,.36-.36q.6,0,.6.36a18.19,18.19,0,0,1-2.16,7.69A67.86,67.86,0,0,1,99.31,16l0,.07,0,0,0,0,0,0h0v0l0,0,0,0,0,0-.2.3,0,0v0l-.06.08,0,0v0l0,0,0,0h0v0l0,0,0,0v0l0,0,0,0h0v0l0,0v0l0,0,0,0,0,0h0v0l0,0v0l0,0,0,0,0,0v0h0l0,0v0l0,0,0,0,0,0v0h0l0,0,0,0v0l0,0,0,0,0,0h0l0,0,0,0v0l0,0,0,0,0,0-.11.16h0l-.12.17h0l-.11.16h0l-.11.16h0l-.11.16h0l-.11.16h0l-.11.15h0l-.1.15v0l-.11.15v0l-.1.14,0,0-.1.13,0,0-.1.13,0,0-.09.12,0,0-.08.12,0,.05-.37.51-.06.09-.07.09-.05.07-.07.1-.64.86h0l-.24.33h0l-.12.16v0l-.23.3,0,.05c-.38.51-.78,1-1.18,1.55l0,0-.69.89,0,0-.13.15h0l-.12.16,0,0-.42.54-.06.07-.08.11,0,0-.11.13,0,0-.12.15h0l-.13.15,0,0-.1.14,0,0-.09.11-.06.07-.06.08-.09.1,0,.06-.1.13,0,0-.13.15h0l-.13.16,0,0-.1.13,0,.06-.15.18-.15.19,0,0-.42.52Q84.7,35,79.35,41.15T68.42,53.64Q62.83,59.94,57.67,66a5.17,5.17,0,0,1,.84.06,4.37,4.37,0,0,0,.72.06q6.12-7.2,12.85-14.65T85.84,37.06q3.28-3.24,6.6-6.29l.07-.06.11-.11,0,0,.66-.61h0l.12-.11.76-.7.06,0,.11-.1,0-.05,1.48-1.33.07-.05,0-.05.36-.32,0,0,.08-.07.12-.11h0l.1-.09.23-.2h0l.11-.09h0l.12-.11.09-.08,0,0,.12-.11.08-.06.16-.15.06-.05L97.8,26l.12-.1,0,0,.08-.07.12-.1,0,0,.1-.09.12-.1h0l.11-.09.11-.1h0l.11-.1.1-.08,0,0,.12-.1.08-.06,0,0,.12-.11.06,0,.06-.06.12-.1,0,0,.08-.08.12-.1h0l.1-.09.12-.1,0,0,0,0,0,0,0,0,0,0,0,0,0,0h0l0,0,0,0,0,0,0,0,0,0,0,0,0,0h0l0,0,0,0,0,0,0,0,0,0,0,0,0,0h0l0,0,0,0,0,0,0,0,0,0,0,0,0,0h0l0,0,0,0,0,0,0,0,0,0,0,0h0v0l0,0,0,0,0,0,0,0,0,0,0,0,0,0h0l0,0,0,0,0,0,0,0,0,0,0,0h0l0,0,0,0,0,0,0,0,0,0,0,0,0,0h0l0,0,0,0,.07-.05,0,0,0,0,0,0h0a137.77,137.77,0,0,1,11.88-8.89,79.79,79.79,0,0,1,13-7.14,30.12,30.12,0,0,1,11.68-2.65q4.92,0,7.2,1.93a7,7,0,0,1,2.53,5,20.18,20.18,0,0,1-2,8,41.67,41.67,0,0,1-5.83,9.19,62.44,62.44,0,0,1-9,8.89,57.1,57.1,0,0,1-11.61,7.27,22.4,22.4,0,0,1,10.47,9.19,26.4,26.4,0,0,1,3.26,13.16,45.28,45.28,0,0,1-2.08,13.09,71,71,0,0,0,8.81-.78,43.59,43.59,0,0,0,8.29-2.1,35.26,35.26,0,0,0,11.89-7.09l1.92-1.92C163,67,163.62,66.31,164.27,65.59Z"/></clipPath><linearGradient id="Gradiente_sem_nome_8" y1="66.8" x2="164.99" y2="66.8" gradientUnits="userSpaceOnUse"><stop offset="0" stop-color="#ebd480"/><stop offset="0.2" stop-color="#a78048"/><stop offset="0.48" stop-color="#ebd480"/><stop offset="0.5" stop-color="#f2e99e"/><stop offset="0.52" stop-color="#ebd480"/><stop offset="0.84" stop-color="#a78048"/><stop offset="1" stop-color="#ebd480"/></linearGradient><clipPath id="clip-path-2"><path class="cls-1" d="M111.89,79.62l14.2,34.86c1.1,2.68,2.84,6.62,4.89,7.41v.31H118.84v1.42H149V122.2h-1.26c-5.21,0-6.15-2.2-9.31-9.77L125.67,81.3h-.18l-5.58-.48c-2.68-.3-5.36-.7-8-1.19m-19-46.55,17.61,43.25.34.06a112.09,112.09,0,0,0,13.54,1.84l-21.89-53.6c-2.64,2.19-5.22,4.45-7.75,6.75Zm-12,.08,3.85-8.84C86.21,21,86.68,19,86.68,18H88.1a15,15,0,0,0,1,5.63c2.31-2.78,4.58-5.59,6.77-8.45,1.22-1.59,2.43-3.23,3.57-4.91H87.6l-13,30.1L76,38.8C77.62,36.92,79.29,35,80.94,33.15Zm-48.8,90.47H60.83V122.2H53.11c-4.71,0-7.57-2.49-7.57-6.17a9.51,9.51,0,0,1,.79-3.6L65.31,69l-2.92-.5-19.06,44c-2.36,5.36-4.73,9.77-8.67,9.77H32.14Z"/></clipPath><linearGradient id="Gradiente_sem_nome_8-2" x1="32.14" y1="66.95" x2="148.95" y2="66.95" xlink:href="#Gradiente_sem_nome_8"/></defs><g id="Camada_2" data-name="Camada 2"><g id="Camada_1-2" data-name="Camada 1"><path class="cls-2" d="M317.9,112.09l5.48-11.18h1.15l5.54,11.18h-1.51l-1.52-3h-6.17l-1.48,3Zm3.6-4.31h4.92l-2.47-5Z"/><path class="cls-2" d="M351.12,100.91a5.84,5.84,0,0,1,4.25,1.56,5.39,5.39,0,0,1,1.62,4.06,5.32,5.32,0,0,1-1.59,4,5.91,5.91,0,0,1-4.28,1.52h-4.79V100.91Zm0,1.29h-3.4v8.61h3.4a4.45,4.45,0,0,0,3.25-1.16,4.7,4.7,0,0,0,0-6.27A4.4,4.4,0,0,0,351.12,102.2Z"/><polygon class="cls-2" points="378.06 112.09 377.19 112.09 371.8 100.91 373.31 100.91 377.63 109.87 381.94 100.91 383.48 100.91 378.06 112.09"/><path class="cls-2" d="M404.1,112.38a5.59,5.59,0,0,1-4.15-1.65,6.21,6.21,0,0,1,0-8.41,6,6,0,0,1,8.31,0,6.17,6.17,0,0,1,0,8.4,5.63,5.63,0,0,1-4.16,1.65m0-1.3a4.16,4.16,0,0,0,3.12-1.29,4.95,4.95,0,0,0,0-6.53,4.42,4.42,0,0,0-6.24,0,4.92,4.92,0,0,0,0,6.53A4.13,4.13,0,0,0,404.1,111.08Z"/><path class="cls-2" d="M435.47,109.06v-1.63h-3v-1.29h4.43v3.36a5.71,5.71,0,0,1-2.11,2.14,5.9,5.9,0,0,1-2.95.74,5.61,5.61,0,0,1-4.15-1.65,6.24,6.24,0,0,1,0-8.41,5.63,5.63,0,0,1,4.15-1.66,5.94,5.94,0,0,1,2.82.68,5.45,5.45,0,0,1,2.08,1.94l-1.16.83a3.85,3.85,0,0,0-1.53-1.57,4.31,4.31,0,0,0-2.21-.57,4.14,4.14,0,0,0-3.12,1.29,4.95,4.95,0,0,0,0,6.53,4.14,4.14,0,0,0,3.12,1.29,4.23,4.23,0,0,0,2.09-.51,4.53,4.53,0,0,0,1.58-1.51"/><path class="cls-2" d="M452.24,112.09l5.48-11.18h1.16l5.54,11.18h-1.51l-1.52-3h-6.18l-1.48,3Zm3.61-4.31h4.92l-2.47-5Z"/><path class="cls-2" d="M485.47,100.91a5.84,5.84,0,0,1,4.25,1.56,5.39,5.39,0,0,1,1.62,4.06,5.32,5.32,0,0,1-1.59,4,5.91,5.91,0,0,1-4.28,1.52h-4.8V100.91Zm0,1.29h-3.41v8.61h3.41a4.45,4.45,0,0,0,3.25-1.16,4.72,4.72,0,0,0,0-6.27A4.4,4.4,0,0,0,485.47,102.2Z"/><path class="cls-2" d="M513.23,112.38a5.59,5.59,0,0,1-4.15-1.65,6.22,6.22,0,0,1,0-8.41,6,6,0,0,1,8.3,0,6.17,6.17,0,0,1,0,8.4,5.61,5.61,0,0,1-4.16,1.65m0-1.3a4.13,4.13,0,0,0,3.12-1.29,4.93,4.93,0,0,0,0-6.53,4.43,4.43,0,0,0-6.25,0,4.95,4.95,0,0,0,0,6.53A4.16,4.16,0,0,0,513.23,111.08Z"/><path class="cls-2" d="M535,110.41l.81-1.2a9.53,9.53,0,0,0,2.46,1.4,7.28,7.28,0,0,0,2.54.49,4.39,4.39,0,0,0,2.52-.66,2,2,0,0,0,1-1.69,1.63,1.63,0,0,0-.7-1.35,3.64,3.64,0,0,0-1.92-.63l-.85-.06a12.66,12.66,0,0,1-3.76-.65,2.88,2.88,0,0,1-1.18-1,2.32,2.32,0,0,1-.41-1.33,2.63,2.63,0,0,1,1.21-2.22,5.2,5.2,0,0,1,3.13-.88,8.78,8.78,0,0,1,2.76.46,9.64,9.64,0,0,1,2.59,1.37l-.81,1.16a8.17,8.17,0,0,0-2.18-1.26,6.72,6.72,0,0,0-2.34-.42,4,4,0,0,0-2.09.5,1.43,1.43,0,0,0-.82,1.23,1.26,1.26,0,0,0,.13.54,1.55,1.55,0,0,0,.41.45,6.12,6.12,0,0,0,3,.66c.7,0,1.25.08,1.63.13a4.68,4.68,0,0,1,2.7,1.1,2.86,2.86,0,0,1,1,2.21,3.07,3.07,0,0,1-1.36,2.58,5.91,5.91,0,0,1-3.58,1,9.68,9.68,0,0,1-3.1-.48,9.37,9.37,0,0,1-2.73-1.49"/><path class="cls-2" d="M185.41,48.76h-.13a2.79,2.79,0,0,0-.9-2.09,2.9,2.9,0,0,0-2.11-.87h-.56l-.05-.47h3.75Zm0,26v3.42h-3.75l.05-.46h.56a2.9,2.9,0,0,0,2.11-.87,2.79,2.79,0,0,0,.9-2.09Zm2.91-29.39V78.14h-3V45.33Zm-2.3,0h5a13.93,13.93,0,0,1,5.56,1A7.7,7.7,0,0,1,200,49.06a7.23,7.23,0,0,1,1.17,4.1,7.56,7.56,0,0,1-.75,3.45A7,7,0,0,1,198.49,59,7.28,7.28,0,0,1,196,60.29a9.92,9.92,0,0,1,4.29,1.64,8.46,8.46,0,0,1,2.76,3.16,9.28,9.28,0,0,1,1,4.24A8.47,8.47,0,0,1,202.76,74,8.27,8.27,0,0,1,199,77a14.37,14.37,0,0,1-5.93,1.1h-5.2s0-.14,0-.42,0-.56,0-.84v-.42h5a8.94,8.94,0,0,0,4.13-.87A6,6,0,0,0,199.62,73a8.6,8.6,0,0,0,.89-4,8.07,8.07,0,0,0-1-4.26,6.71,6.71,0,0,0-2.6-2.48,10.88,10.88,0,0,0-3.45-1.15,21,21,0,0,0-3.54-.31v-.42a14.44,14.44,0,0,0,2.4-.23,7.94,7.94,0,0,0,2.53-.94,5.55,5.55,0,0,0,2-2.09,7.23,7.23,0,0,0,.8-3.63,7.86,7.86,0,0,0-.77-3.61,5.15,5.15,0,0,0-2.3-2.27,8.22,8.22,0,0,0-3.77-.78h-4.32a3.55,3.55,0,0,0-.11-.39l-.24-.73Z"/><path class="cls-2" d="M210.7,53h-.09a2.51,2.51,0,0,0-.8-1.78,2.73,2.73,0,0,0-1.92-.7h-.66V50h4.08Zm0,22.17.61,3h-4.08v-.46h.66a2.65,2.65,0,0,0,2.72-2.54Zm15.47-25.87v1.22L220.83,50a19,19,0,0,0,3.09-.26A12.51,12.51,0,0,0,226.17,49.27Zm0,2.06v3.24h-.52v-.7a2.44,2.44,0,0,0-.63-1.69,2.18,2.18,0,0,0-1.71-.71v-.14ZM224,60.8v2.67h-2.43v-.09a1.75,1.75,0,0,0,1.45-.59,2.16,2.16,0,0,0,.47-1.38V60.8Zm0,3.89v2.67h-.51v-.61a2.16,2.16,0,0,0-.47-1.38,1.75,1.75,0,0,0-1.45-.58v-.1Zm4.83,6.75-2.58,6.7h-7.12l1.59-1.45a9,9,0,0,0,3.78-.68,6.09,6.09,0,0,0,2.31-1.87,13.59,13.59,0,0,0,1.55-2.7ZM226.17,50v1.45H213.51V50ZM224,63.38v1.41h-10.5V63.38Zm2.21,13.31-.1,1.45H213.51V76.69ZM213.61,50V78.14h-3V50Z"/><path class="cls-2" d="M237.3,75.14h.14a2.62,2.62,0,0,0,.8,1.79,2.53,2.53,0,0,0,1.87.75h.61l.05.46h-4ZM234.58,53h-.09a2.51,2.51,0,0,0-.8-1.78,2.66,2.66,0,0,0-1.87-.7h-.66V50h4Zm0,22.17.56,3h-4v-.46h.66a2.53,2.53,0,0,0,1.87-.75,2.62,2.62,0,0,0,.8-1.79ZM237.44,50V78.14h-3V50Zm-.56,0h6a13.81,13.81,0,0,1,4,.52,8.46,8.46,0,0,1,3,1.5,6.39,6.39,0,0,1,1.9,2.39,7.41,7.41,0,0,1,.66,3.18,7.34,7.34,0,0,1-.94,3.66A7.66,7.66,0,0,1,248.9,64a8.75,8.75,0,0,1-3.77,1.31A5.83,5.83,0,0,1,247,66.8a20.79,20.79,0,0,1,1.8,2.2l.61.82c.41.55.93,1.22,1.57,2s1.28,1.55,1.9,2.27,1.26,1.35,1.81,1.88a6.42,6.42,0,0,0,1.78,1.24,5.18,5.18,0,0,0,2.22.45v.46h-1.45a11.63,11.63,0,0,1-4.24-.65,8.57,8.57,0,0,1-2.7-1.62A23.08,23.08,0,0,1,248.5,74l-.87-1.2-1.47-2.08-1.45-2-.8-1.1a12.73,12.73,0,0,0-2.16-2.18,4.09,4.09,0,0,0-2.58-1V64l.75,0c.5,0,1.15,0,1.93,0s1.75-.1,2.62-.21a5.19,5.19,0,0,0,2.46-1A5.52,5.52,0,0,0,248.74,60a6.9,6.9,0,0,0,.28-1.22,7,7,0,0,0,0-1.45,6.38,6.38,0,0,0-.49-2.35,5.2,5.2,0,0,0-1.26-1.78A6,6,0,0,0,245.36,52a7.91,7.91,0,0,0-2.53-.47c-1.47-.06-2.75-.08-3.84-.05a8.4,8.4,0,0,1-1.64,0,2.66,2.66,0,0,0-.12-.39c-.08-.24-.16-.47-.23-.71Z"/><path class="cls-2" d="M286.21,52.93a2.45,2.45,0,0,0-.8-1.74,2.61,2.61,0,0,0-1.83-.7h-.79V50h3.51v2.91Zm1.92,0V50h3.52v.47h-.8a2.65,2.65,0,0,0-1.81.7,2.28,2.28,0,0,0-.77,1.74Zm.14-2.91V72.8c0,1,0,2,.1,2.88s.13,1.68.21,2.25.11.87.11.87h-.42l-2.06-2.48V50Zm-26.43-.7,2,2.62,0,26.2h-2.11v-23a35,35,0,0,0-.21-4.13l-.21-1.73Zm2.06,25.92a2.26,2.26,0,0,0,.77,1.73,2.62,2.62,0,0,0,1.81.71h.79v.46h-3.51v-2.9Zm-2,0v2.9h-3.51v-.46h.79A2.58,2.58,0,0,0,261,77a2.27,2.27,0,0,0,.75-1.73Zm-.09-25.92,26,24.47.47,5-26-24.61Z"/><path class="cls-2" d="M315.76,74.72h3.56A5.15,5.15,0,0,0,321.06,77a3.6,3.6,0,0,0,2,.68h.37v.46h-9.61v-.46h.38a1.89,1.89,0,0,0,1.45-.78,2.07,2.07,0,0,0,.14-2.18m-2.39-7.5v1.41H301V67.22Zm-5.53-17.85.33,3.23L297.43,78h-2.95l11.11-23.81s.09-.18.26-.56.37-.84.61-1.38.44-1.09.63-1.62a5.61,5.61,0,0,0,.33-1.26Zm-9,25.35a2.12,2.12,0,0,0,.14,2.18,1.94,1.94,0,0,0,1.5.78h.38v.46h-8.95v-.46h.37a3.7,3.7,0,0,0,2-.68A5.51,5.51,0,0,0,296,74.72Zm9-25.35,12.89,28.49H317L307,53.54Z"/><path class="cls-2" d="M330.69,75.14h.14a2.62,2.62,0,0,0,.8,1.79,2.53,2.53,0,0,0,1.87.75h.61l.05.46h-4ZM328,53h-.09a2.51,2.51,0,0,0-.8-1.78,2.68,2.68,0,0,0-1.88-.7h-.65V50h4Zm0,22.17.56,3h-4v-.46h.65a2.56,2.56,0,0,0,1.88-.75,2.62,2.62,0,0,0,.8-1.79ZM330.83,50V78.14h-3V50Zm-.56,0h6a13.81,13.81,0,0,1,4,.52,8.46,8.46,0,0,1,3,1.5,6.49,6.49,0,0,1,1.9,2.39,7.41,7.41,0,0,1,.66,3.18,7.34,7.34,0,0,1-.94,3.66,7.66,7.66,0,0,1-2.6,2.77,8.75,8.75,0,0,1-3.77,1.31,5.94,5.94,0,0,1,1.85,1.45,20.79,20.79,0,0,1,1.8,2.2s.2.28.61.82.93,1.22,1.57,2,1.27,1.55,1.9,2.27,1.26,1.35,1.8,1.88a6.62,6.62,0,0,0,1.79,1.24,5.18,5.18,0,0,0,2.22.45v.46h-1.45a11.63,11.63,0,0,1-4.24-.65,8.57,8.57,0,0,1-2.7-1.62A21.45,21.45,0,0,1,341.89,74l-.87-1.2-1.47-2.08-1.46-2c-.43-.61-.7-1-.79-1.1a12.73,12.73,0,0,0-2.16-2.18,4.09,4.09,0,0,0-2.58-1V64l.75,0c.5,0,1.14,0,1.93,0s1.75-.1,2.62-.21a5.23,5.23,0,0,0,2.46-1,5.45,5.45,0,0,0,1.8-2.81,6.08,6.08,0,0,0,.29-1.22,7.74,7.74,0,0,0,0-1.45,6.38,6.38,0,0,0-.49-2.35,5.34,5.34,0,0,0-1.26-1.78A6,6,0,0,0,338.75,52a7.91,7.91,0,0,0-2.53-.47c-1.47-.06-2.75-.08-3.84-.05a8.4,8.4,0,0,1-1.64,0,2.66,2.66,0,0,0-.12-.39l-.24-.71Z"/><path class="cls-2" d="M356.12,53.07H356a2.55,2.55,0,0,0-.82-1.85,2.64,2.64,0,0,0-1.9-.73h-.56V50h3.38Zm0,22v3h-3.38v-.46h.61a2.5,2.5,0,0,0,1.88-.78,2.68,2.68,0,0,0,.79-1.8ZM359.07,50V78.14H356V50Zm9.33,0a17.66,17.66,0,0,1,8,1.69,12,12,0,0,1,5.2,4.85,14.78,14.78,0,0,1,1.83,7.52,14.62,14.62,0,0,1-1.83,7.5,12.2,12.2,0,0,1-5.2,4.85,17.52,17.52,0,0,1-8,1.71h-10l-.09-1.4H368.4a11.05,11.05,0,0,0,8.55-3.4q3.12-3.41,3.12-9.26T377,54.83a11,11,0,0,0-8.55-3.4H357.85V50Z"/><path class="cls-2" d="M389.93,53h-.09a2.51,2.51,0,0,0-.8-1.78,2.73,2.73,0,0,0-1.92-.7h-.66V50h4.08Zm0,22.17.61,3h-4.08v-.46h.66a2.65,2.65,0,0,0,2.72-2.54ZM405.4,49.27v1.22L400.06,50a19,19,0,0,0,3.09-.26A12.51,12.51,0,0,0,405.4,49.27Zm0,2.06v3.24h-.52v-.7a2.44,2.44,0,0,0-.63-1.69,2.18,2.18,0,0,0-1.71-.71v-.14Zm-2.16,9.47v2.67h-2.43v-.09a1.75,1.75,0,0,0,1.45-.59,2.16,2.16,0,0,0,.47-1.38V60.8Zm0,3.89v2.67h-.51v-.61a2.16,2.16,0,0,0-.47-1.38,1.75,1.75,0,0,0-1.45-.58v-.1Zm4.83,6.75-2.58,6.7h-7.12L400,76.69a8.94,8.94,0,0,0,3.78-.68,6.2,6.2,0,0,0,2.32-1.87,14.07,14.07,0,0,0,1.54-2.7ZM405.4,50v1.45H392.74V50Zm-2.16,13.36v1.41h-10.5V63.38Zm2.21,13.31-.1,1.45H392.74V76.69ZM392.84,50V78.14h-3V50Z"/><path class="cls-2" d="M425.44,49.79l0,.84h-3.33v-.84Zm-6.19-.42c.87,0,1.64,0,2.3.09s1.22.13,1.71.21a10,10,0,0,1,1.26.28l1,.31,0,4.64H425a3.75,3.75,0,0,0-1.32-3,6.26,6.26,0,0,0-4.07-1.1,6.34,6.34,0,0,0-4,1.29A3.74,3.74,0,0,0,414,55.22a5,5,0,0,0,.17,1.25,4.14,4.14,0,0,0,.56,1.24,5.77,5.77,0,0,0,1.1,1.22l9.47,7.31a5.21,5.21,0,0,1,1.59,2.27,8.48,8.48,0,0,1,.56,2.74,6.56,6.56,0,0,1-1.07,3.8,7.94,7.94,0,0,1-3,2.74,8.8,8.8,0,0,1-4.19,1,20.77,20.77,0,0,1-2.93-.23,15.32,15.32,0,0,1-2.93-.73A7.29,7.29,0,0,1,411,76.6a8.53,8.53,0,0,1-.14-1.67A14.67,14.67,0,0,1,411,72.8a12.5,12.5,0,0,1,.45-2H412a6.39,6.39,0,0,0,.61,3.6A5.27,5.27,0,0,0,415,76.67a7.55,7.55,0,0,0,3.61.72,7.32,7.32,0,0,0,4.57-1.47,4.55,4.55,0,0,0,1.67-3.68,5.15,5.15,0,0,0-.4-2,5.08,5.08,0,0,0-1.29-1.71l-9.38-7.22A5.9,5.9,0,0,1,412,58.79a8,8,0,0,1-.47-2.58,6.11,6.11,0,0,1,1-3.47,7.26,7.26,0,0,1,2.79-2.46A8.32,8.32,0,0,1,419.25,49.37Z"/><path class="cls-2" d="M501.46,74.72h3.84A4.78,4.78,0,0,0,507.18,77a4.52,4.52,0,0,0,2.25.68h.37v.46H499.26v-.46h.42a2.1,2.1,0,0,0,1.59-.78,2,2,0,0,0,.19-2.18m-2.11-9.37v1.4H484.68v-1.4Zm-6.61-20.67.42,3.28L481.4,78h-2.81l12-28.49.26-.59c.17-.39.38-.87.61-1.43s.44-1.11.61-1.64a4.4,4.4,0,0,0,.26-1.17Zm-10.08,30a2.37,2.37,0,0,0-.09,1.6,1.94,1.94,0,0,0,.77,1,2,2,0,0,0,1.1.36h.43v.46h-9.42v-.46h.42a4.36,4.36,0,0,0,2.22-.68,5,5,0,0,0,1.9-2.28Zm10.08-30,13.87,33.18h-4L491.8,49.13Z"/><path class="cls-2" d="M511.14,49.23a11.77,11.77,0,0,0,1.31.3c.59.11,1.24.2,1.94.28s1.37.13,2,.17l-5.25.46Zm0,2.06H514v.09a2.38,2.38,0,0,0-1.69.73,2.35,2.35,0,0,0-.66,1.71v.7h-.51Zm24.28,20.15-2.53,6.7h-7l1.6-1.4a9,9,0,0,0,3.68-.71,5.86,5.86,0,0,0,2.27-1.85A13.31,13.31,0,0,0,535,71.44Zm-2.53,5.3-.33,1.4H513.48v-1.4Zm-.43-27.37v.42L513.71,78.14h-3.28v-.42l17.49-26.34H511.14V50h16c.65,0,1.36,0,2.11-.1s1.42-.14,2-.23A5.14,5.14,0,0,0,532.46,49.37Z"/><path class="cls-2" d="M541.44,53h-.09a2.55,2.55,0,0,0-.8-1.78,2.73,2.73,0,0,0-1.92-.7H538V50h4.08Zm0,22.17.61,3H538v-.46h.66a2.6,2.6,0,0,0,1.92-.75,2.67,2.67,0,0,0,.8-1.79Zm15.47-25.87v1.22L551.56,50a19.15,19.15,0,0,0,3.1-.26A12.51,12.51,0,0,0,556.91,49.27Zm0,2.06v3.24h-.52v-.7a2.44,2.44,0,0,0-.63-1.69,2.2,2.2,0,0,0-1.71-.71v-.14Zm-2.16,9.47v2.67h-2.44v-.09a1.77,1.77,0,0,0,1.46-.59,2.15,2.15,0,0,0,.46-1.38V60.8Zm0,3.89v2.67h-.52v-.61a2.15,2.15,0,0,0-.46-1.38,1.77,1.77,0,0,0-1.46-.58v-.1Zm4.83,6.75L557,78.14h-7.12l1.59-1.45a8.89,8.89,0,0,0,3.77-.68,6.12,6.12,0,0,0,2.32-1.87,13.59,13.59,0,0,0,1.55-2.7ZM556.91,50v1.45H544.25V50Zm-2.16,13.36v1.41h-10.5V63.38ZM557,76.69l-.09,1.45H544.25V76.69ZM544.34,50V78.14h-3V50Z"/><path class="cls-2" d="M567.19,53.44h-3.56a5.12,5.12,0,0,0-1.73-2.27,3.65,3.65,0,0,0-2-.68h-.38V50h9.61v.47h-.37a1.83,1.83,0,0,0-1.43.77,2.19,2.19,0,0,0-.17,2.18m17,0a2.1,2.1,0,0,0-.14-2.18,2,2,0,0,0-1.5-.77h-.33V50h8.91v.47h-.38a3.67,3.67,0,0,0-2,.68,5.25,5.25,0,0,0-1.78,2.27Zm-9,25.36-.32-3.23,10.73-25.41h3L577.36,74l-.25.57c-.18.37-.38.83-.61,1.38s-.45,1.08-.64,1.61a6.28,6.28,0,0,0-.32,1.27Zm0,0L562.22,50.3h3.71l10,24.33Z"/><path class="cls-2" d="M595.71,53h-.09a2.51,2.51,0,0,0-.8-1.78,2.73,2.73,0,0,0-1.92-.7h-.66V50h4.08Zm0,22.17.61,3h-4.08v-.46h.66a2.65,2.65,0,0,0,2.72-2.54Zm15.47-25.87v1.22L605.84,50a18.94,18.94,0,0,0,3.09-.26A12.51,12.51,0,0,0,611.18,49.27Zm0,2.06v3.24h-.51v-.7a2.45,2.45,0,0,0-.64-1.69,2.18,2.18,0,0,0-1.71-.71v-.14ZM609,60.8v2.67h-2.43v-.09a1.75,1.75,0,0,0,1.45-.59,2.16,2.16,0,0,0,.47-1.38V60.8Zm0,3.89v2.67h-.51v-.61a2.16,2.16,0,0,0-.47-1.38,1.75,1.75,0,0,0-1.45-.58v-.1Zm4.83,6.75-2.58,6.7h-7.12l1.59-1.45a8.94,8.94,0,0,0,3.78-.68,6.2,6.2,0,0,0,2.32-1.87,13.57,13.57,0,0,0,1.54-2.7ZM611.18,50v1.45H598.53V50ZM609,63.38v1.41H598.53V63.38Zm2.21,13.31-.1,1.45h-12.6V76.69ZM598.62,50V78.14h-3V50Z"/><path class="cls-2" d="M619.55,53.07h-.1a2.55,2.55,0,0,0-.82-1.85,2.64,2.64,0,0,0-1.9-.73h-.56V50h3.38Zm0,22v3h-3.38v-.46h.61a2.5,2.5,0,0,0,1.88-.78,2.68,2.68,0,0,0,.79-1.8Zm3-25.08V78.14h-3V50Zm9.33,0a17.66,17.66,0,0,1,8,1.69,12,12,0,0,1,5.2,4.85,14.78,14.78,0,0,1,1.83,7.52,14.62,14.62,0,0,1-1.83,7.5,12.2,12.2,0,0,1-5.2,4.85,17.52,17.52,0,0,1-8,1.71h-10l-.09-1.4h10.08a11.05,11.05,0,0,0,8.55-3.4q3.12-3.41,3.12-9.26t-3.12-9.25a11,11,0,0,0-8.55-3.4H621.28V50Z"/><path class="cls-2" d="M666.16,77.39a12,12,0,0,0,6.28-1.68A12.18,12.18,0,0,0,676.89,71a15.55,15.55,0,0,0,0-13.9,12.17,12.17,0,0,0-4.45-4.66,12.44,12.44,0,0,0-12.52,0,12.24,12.24,0,0,0-4.45,4.66,15.55,15.55,0,0,0,0,13.9,12.25,12.25,0,0,0,4.45,4.69,12,12,0,0,0,6.24,1.68m0-28a17.83,17.83,0,0,1,6.16,1.05,15.28,15.28,0,0,1,5.06,3,13.92,13.92,0,0,1,3.4,4.67,15.24,15.24,0,0,1,0,12,13.78,13.78,0,0,1-3.4,4.66,15.47,15.47,0,0,1-5.06,3,17.83,17.83,0,0,1-6.16,1,17.64,17.64,0,0,1-6.14-1,15.48,15.48,0,0,1-5-3,13.92,13.92,0,0,1-3.4-4.66,15.24,15.24,0,0,1,0-12,14.06,14.06,0,0,1,3.4-4.67,15.29,15.29,0,0,1,5-3A17.64,17.64,0,0,1,666.16,49.37Z"/><path class="cls-2" d="M463.23,65.45a13.69,13.69,0,0,1,.23,4,11.26,11.26,0,0,1-.94,3.57,9.47,9.47,0,0,1-2,2.87,8.86,8.86,0,0,1-3.07,1.91,11.1,11.1,0,0,1-4,.68,20.06,20.06,0,0,1-4.11-.39A12.19,12.19,0,0,1,446,77a8.57,8.57,0,0,1-2.42-1.86,7.47,7.47,0,0,1-1.48-2.51,9.12,9.12,0,0,1-.5-3.14,7.94,7.94,0,0,1,.25-2.07,7.06,7.06,0,0,1,1.81-3.2,10.88,10.88,0,0,1,1.41-1.18,8.92,8.92,0,0,1,1.66-.92l.54.84A6.81,6.81,0,0,0,446,64.35a7.71,7.71,0,0,0-.89,1.58,7.82,7.82,0,0,0-.5,1.73,10.32,10.32,0,0,0-.16,1.84,8.19,8.19,0,0,0,.6,3.18,6.84,6.84,0,0,0,1.74,2.49,7.79,7.79,0,0,0,2.82,1.62,11.65,11.65,0,0,0,3.84.58,7.45,7.45,0,0,0,3.49-.79,7.86,7.86,0,0,0,2.55-2.08,9.25,9.25,0,0,0,1.95-6.06,7.4,7.4,0,0,0-.78-3,3.83,3.83,0,0,0-1-1.28,2.32,2.32,0,0,0-1.52-.5h-.58v-.39h7.68v.39h-.58a1.43,1.43,0,0,0-1.22.5,1.6,1.6,0,0,0-.21,1.28M452.58,50.58a9.38,9.38,0,0,1,2.54.35,9.68,9.68,0,0,1,2.28,1,6.07,6.07,0,0,1,1.74,1.45l-.7,4.36h-.38a6.74,6.74,0,0,0-.7-3.19,5,5,0,0,0-1.91-2,5.53,5.53,0,0,0-2.87-.72,4.78,4.78,0,0,0-3.65,1.55,5.46,5.46,0,0,0-1.45,3.9,7.33,7.33,0,0,0,1.58,4.51,36.39,36.39,0,0,0,4.56,4.75c.57.49,1.19,1,1.87,1.68s1.47,1.33,2.36,2.1,1.88,1.62,3,2.55c.82.67,1.66,1.38,2.53,2.12A18.09,18.09,0,0,0,466,76.83a6.57,6.57,0,0,0,2.84.93v.38l-2.11,0a12.14,12.14,0,0,1-3-.54,10,10,0,0,1-3.32-1.86c-1-.8-1.87-1.53-2.68-2.22l-2.24-1.89c-.68-.58-1.32-1.13-1.91-1.66l-1.74-1.56c-1.49-1.39-2.76-2.65-3.8-3.76a13.63,13.63,0,0,1-2.39-3.44,9.27,9.27,0,0,1-.83-4,6.31,6.31,0,0,1,.54-2.63,6,6,0,0,1,1.56-2.08,7.25,7.25,0,0,1,2.45-1.39A9.52,9.52,0,0,1,452.58,50.58Z"/><g class="cls-3"><rect class="cls-4" width="164.99" height="133.59"/></g><g class="cls-5"><rect class="cls-6" x="32.14" y="10.28" width="116.8" height="113.34"/></g></g></g></svg>